<svg width="40" height="40" viewBox="0 0 40 40" fill="none" xmlns="http://www.w3.org/2000/svg">
<path d="M27.5 5C27.5 4.33696 27.7634 3.70107 28.2322 3.23223C28.7011 2.76339 29.337 2.5 30 2.5H35C35.663 2.5 36.2989 2.76339 36.7678 3.23223C37.2366 3.70107 37.5 4.33696 37.5 5V35H38.75C39.0815 35 39.3995 35.1317 39.6339 35.3661C39.8683 35.6005 40 35.9185 40 36.25C40 36.5815 39.8683 36.8995 39.6339 37.1339C39.3995 37.3683 39.0815 37.5 38.75 37.5H1.25C0.918479 37.5 0.600537 37.3683 0.366117 37.1339C0.131696 36.8995 0 36.5815 0 36.25C0 35.9185 0.131696 35.6005 0.366117 35.3661C0.600537 35.1317 0.918479 35 1.25 35H2.5V27.5C2.5 26.837 2.76339 26.2011 3.23223 25.7322C3.70107 25.2634 4.33696 25 5 25H10C10.663 25 11.2989 25.2634 11.7678 25.7322C12.2366 26.2011 12.5 26.837 12.5 27.5V35H15V17.5C15 16.837 15.2634 16.2011 15.7322 15.7322C16.2011 15.2634 16.837 15 17.5 15H22.5C23.163 15 23.7989 15.2634 24.2678 15.7322C24.7366 16.2011 25 16.837 25 17.5V35H27.5V5ZM30 35H35V5H30V35ZM22.5 35V17.5H17.5V35H22.5ZM10 35V27.5H5V35H10Z" fill="white"/>
</svg>
