<svg width="110" height="31" viewBox="0 0 110 31" fill="none" xmlns="http://www.w3.org/2000/svg">
<line y1="1.5" x2="46" y2="1.5" stroke="white" stroke-width="3"/>
<line y1="15.5" x2="46" y2="15.5" stroke="white" stroke-width="3"/>
<line y1="29.5" x2="46" y2="29.5" stroke="white" stroke-width="3"/>
<path d="M100.406 18.728V11.304H102.454V18.6C102.454 20.28 103.366 21.208 105.03 21.208C106.694 21.208 107.622 20.264 107.622 18.6V11.304H109.67V18.728C109.67 21.464 107.878 23.192 105.03 23.192C102.198 23.192 100.406 21.48 100.406 18.728Z" fill="white"/>
<path d="M89.8969 23H87.8809V11.304H89.9129L95.4009 19.592V11.304H97.4169V23H95.4009L89.8969 14.712V23Z" fill="white"/>
<path d="M85.1805 23H77.9165V11.304H85.1805V13.192H79.9645V16.2H84.6365V18.008H79.9645V21.112H85.1805V23Z" fill="white"/>
<path d="M65.2799 23H63.2959V11.304H65.2799L69.0559 20.616L72.8319 11.304H74.8479V23H72.8639V19.4C72.8639 17.048 72.8639 16.36 72.9759 15.528L69.9999 23H68.1119L65.1519 15.544C65.2639 16.248 65.2799 17.352 65.2799 18.808V23Z" fill="white"/>
</svg>
