<svg width="40" height="40" viewBox="0 0 40 40" fill="none" xmlns="http://www.w3.org/2000/svg">
<g clip-path="url(#clip0_220_110)">
<path d="M21.2875 2.5475C20.8591 2.51587 20.4296 2.50002 20 2.5V0C20.4913 0.000239569 20.9825 0.0185854 21.4725 0.055L21.2875 2.5475ZM26.2975 3.6725C25.4961 3.36324 24.6731 3.11339 23.835 2.925L24.3825 0.485C25.3425 0.7 26.2808 0.985 27.1975 1.34L26.2975 3.6725ZM29.7225 5.4475C29.3651 5.2091 28.999 4.98395 28.625 4.7725L29.8575 2.5975C30.7124 3.08165 31.5304 3.62813 32.305 4.2325L30.7675 6.205C30.4286 5.94058 30.08 5.68875 29.7225 5.45V5.4475ZM34.3075 9.9225C33.8129 9.21999 33.2673 8.55486 32.675 7.9325L34.485 6.2075C35.1617 6.9225 35.7842 7.68083 36.3525 8.4825L34.3075 9.9225ZM36.1675 13.3025C36.0036 12.9061 35.8251 12.5158 35.6325 12.1325L37.865 11.0075C38.3063 11.8853 38.6823 12.7944 38.99 13.7275L36.615 14.51C36.4807 14.1021 36.3314 13.6994 36.1675 13.3025ZM37.4925 19.57C37.4722 18.7109 37.3886 17.8544 37.2425 17.0075L39.705 16.5825C39.8717 17.5492 39.9683 18.5242 39.995 19.5075L37.4925 19.57ZM37.165 23.415C37.2483 22.9917 37.3158 22.5667 37.3675 22.14L39.85 22.4475C39.7295 23.4228 39.5373 24.3879 39.275 25.335L36.865 24.6675C36.98 24.2558 37.08 23.8383 37.165 23.415ZM34.785 29.3625C35.245 28.6358 35.65 27.8792 36 27.0925L38.285 28.105C37.885 29.005 37.4225 29.87 36.8975 30.7L34.785 29.3625ZM32.375 32.375C32.68 32.07 32.9717 31.755 33.25 31.43L35.145 33.0625C34.8242 33.4347 34.4898 33.7949 34.1425 34.1425L32.375 32.375Z" fill="white"/>
<path d="M20 2.5C17.1222 2.50021 14.2889 3.21012 11.7509 4.56685C9.21303 5.92358 7.04886 7.88525 5.45014 10.2781C3.85142 12.671 2.86748 15.4212 2.58548 18.2852C2.30348 21.1491 2.73212 24.0384 3.83344 26.6971C4.93475 29.3559 6.67475 31.702 8.89931 33.5276C11.1239 35.3533 13.7643 36.6022 16.5868 37.1637C19.4093 37.7252 22.3267 37.5819 25.0806 36.7466C27.8346 35.9114 30.34 34.4098 32.375 32.375L34.1425 34.1425C31.8168 36.4694 28.9531 38.1868 25.8051 39.1425C22.6571 40.0981 19.3219 40.2626 16.0952 39.6212C12.8684 38.9798 9.84964 37.5525 7.30637 35.4656C4.7631 33.3787 2.77384 30.6967 1.51483 27.6572C0.255831 24.6178 -0.234037 21.3147 0.0886322 18.0407C0.411302 14.7666 1.53655 11.6228 3.36467 8.88755C5.19279 6.15234 7.66734 3.91028 10.5691 2.36001C13.4708 0.809738 16.7101 -0.00087183 20 7.03646e-07V2.5Z" fill="white"/>
<path d="M18.75 7.5C19.0815 7.5 19.3995 7.6317 19.6339 7.86612C19.8683 8.10054 20 8.41848 20 8.75V21.775L28.12 26.415C28.3995 26.5836 28.6019 26.8548 28.6841 27.1707C28.7662 27.4866 28.7216 27.8221 28.5596 28.1055C28.3977 28.3889 28.1313 28.5977 27.8175 28.6873C27.5036 28.7769 27.1671 28.7402 26.88 28.585L18.13 23.585C17.9387 23.4757 17.7796 23.3178 17.669 23.1273C17.5584 22.9367 17.5001 22.7203 17.5 22.5V8.75C17.5 8.41848 17.6317 8.10054 17.8661 7.86612C18.1005 7.6317 18.4185 7.5 18.75 7.5Z" fill="white"/>
</g>
<defs>
<clipPath id="clip0_220_110">
<rect width="40" height="40" fill="white"/>
</clipPath>
</defs>
</svg>
