<svg width="40" height="40" viewBox="0 0 40 40" fill="none" xmlns="http://www.w3.org/2000/svg">
<g clip-path="url(#clip0_220_99)">
<path d="M20 37.5C15.3587 37.5 10.9075 35.6563 7.62563 32.3744C4.34374 29.0925 2.5 24.6413 2.5 20C2.5 15.3587 4.34374 10.9075 7.62563 7.62563C10.9075 4.34374 15.3587 2.5 20 2.5C24.6413 2.5 29.0925 4.34374 32.3744 7.62563C35.6563 10.9075 37.5 15.3587 37.5 20C37.5 24.6413 35.6563 29.0925 32.3744 32.3744C29.0925 35.6563 24.6413 37.5 20 37.5ZM20 40C25.3043 40 30.3914 37.8929 34.1421 34.1421C37.8929 30.3914 40 25.3043 40 20C40 14.6957 37.8929 9.60859 34.1421 5.85786C30.3914 2.10714 25.3043 0 20 0C14.6957 0 9.60859 2.10714 5.85786 5.85786C2.10714 9.60859 0 14.6957 0 20C0 25.3043 2.10714 30.3914 5.85786 34.1421C9.60859 37.8929 14.6957 40 20 40Z" fill="white"/>
<path d="M10.7124 23.9175C10.9995 23.7517 11.3406 23.7068 11.6609 23.7926C11.9811 23.8784 12.2541 24.0879 12.4199 24.375C13.188 25.7055 14.293 26.8103 15.6236 27.5783C16.9542 28.3463 18.4635 28.7504 19.9999 28.75C21.5362 28.7504 23.0456 28.3463 24.3762 27.5783C25.7068 26.8103 26.8117 25.7055 27.5799 24.375C27.6613 24.2317 27.7704 24.1059 27.9007 24.0049C28.0309 23.9039 28.1799 23.8297 28.339 23.7865C28.4981 23.7433 28.6642 23.732 28.8276 23.7532C28.9911 23.7745 29.1488 23.8279 29.2915 23.9103C29.4343 23.9927 29.5593 24.1026 29.6595 24.2335C29.7596 24.3645 29.8329 24.5139 29.875 24.6733C29.9171 24.8327 29.9273 24.9988 29.905 25.1622C29.8827 25.3255 29.8282 25.4828 29.7449 25.625C28.7573 27.3355 27.3368 28.7559 25.6261 29.7433C23.9155 30.7308 21.975 31.2504 19.9999 31.25C18.0247 31.2504 16.0843 30.7308 14.3736 29.7433C12.663 28.7559 11.2424 27.3355 10.2549 25.625C10.0891 25.3379 10.0442 24.9967 10.13 24.6765C10.2158 24.3563 10.4253 24.0833 10.7124 23.9175ZM17.4999 16.25C17.4999 18.32 16.3799 20 14.9999 20C13.6199 20 12.4999 18.32 12.4999 16.25C12.4999 14.18 13.6199 12.5 14.9999 12.5C16.3799 12.5 17.4999 14.18 17.4999 16.25ZM27.4999 16.25C27.4999 18.32 26.3799 20 24.9999 20C23.6199 20 22.4999 18.32 22.4999 16.25C22.4999 14.18 23.6199 12.5 24.9999 12.5C26.3799 12.5 27.4999 14.18 27.4999 16.25Z" fill="white"/>
</g>
<defs>
<clipPath id="clip0_220_99">
<rect width="40" height="40" fill="white"/>
</clipPath>
</defs>
</svg>
