<svg width="24" height="23" viewBox="0 0 24 23" fill="none" xmlns="http://www.w3.org/2000/svg">
<g clip-path="url(#clip0_223_385)">
<path d="M24.0001 11.5703C24.0001 5.17918 18.6271 -0.00157166 12.0001 -0.00157166C5.37007 -0.000134155 -0.00292969 5.17918 -0.00292969 11.5717C-0.00292969 17.3462 4.38607 22.1331 10.1221 23.0013V14.9154H7.07707V11.5717H10.1251V9.02018C10.1251 6.12074 11.9176 4.51937 14.6581 4.51937C15.9721 4.51937 17.3446 4.74505 17.3446 4.74505V7.5913H15.8311C14.3416 7.5913 13.8766 8.48399 13.8766 9.39968V11.5703H17.2036L16.6726 14.9139H13.8751V22.9999C19.6111 22.1316 24.0001 17.3447 24.0001 11.5703Z" fill="white"/>
</g>
<defs>
<clipPath id="clip0_223_385">
<rect width="24" height="23" fill="white"/>
</clipPath>
</defs>
</svg>
