<svg width="40" height="38" viewBox="0 0 40 38" fill="none" xmlns="http://www.w3.org/2000/svg">
<g clip-path="url(#clip0_231_81)">
<path d="M39.1997 19.1127C39.1997 8.88686 30.6029 0.597656 19.9997 0.597656C9.39172 0.599956 0.794922 8.88686 0.794922 19.115C0.794922 28.3541 7.81732 36.0131 16.9949 37.4023V24.4648H12.1229V19.115H16.9997V15.0325C16.9997 10.3934 19.8677 7.83116 24.2525 7.83116C26.3549 7.83116 28.5509 8.19226 28.5509 8.19226V12.7463H26.1293C23.7461 12.7463 23.0021 14.1746 23.0021 15.6397V19.1127H28.3253L27.4757 24.4625H22.9997V37.4C32.1773 36.0108 39.1997 28.3518 39.1997 19.1127Z" fill="#575756"/>
</g>
<defs>
<clipPath id="clip0_231_81">
<rect width="38.4" height="36.8" fill="white" transform="translate(0.799805 0.600098)"/>
</clipPath>
</defs>
</svg>
