<svg width="34" height="40" viewBox="0 0 34 40" fill="none" xmlns="http://www.w3.org/2000/svg">
<g clip-path="url(#clip0_231_75)">
<path d="M16.8073 11.0156C12.0373 11.0156 8.18976 15.0234 8.18976 19.9922C8.18976 24.9609 12.0373 28.9687 16.8073 28.9687C21.5773 28.9687 25.4248 24.9609 25.4248 19.9922C25.4248 15.0234 21.5773 11.0156 16.8073 11.0156ZM16.8073 25.8281C13.7248 25.8281 11.2048 23.2109 11.2048 19.9922C11.2048 16.7734 13.7173 14.1562 16.8073 14.1562C19.8973 14.1562 22.4098 16.7734 22.4098 19.9922C22.4098 23.2109 19.8898 25.8281 16.8073 25.8281ZM27.7873 10.6484C27.7873 11.8125 26.8873 12.7422 25.7773 12.7422C24.6598 12.7422 23.7673 11.8047 23.7673 10.6484C23.7673 9.49219 24.6673 8.55469 25.7773 8.55469C26.8873 8.55469 27.7873 9.49219 27.7873 10.6484ZM33.4948 12.7734C33.3673 9.96875 32.7523 7.48438 30.7798 5.4375C28.8148 3.39062 26.4298 2.75 23.7373 2.60937C20.9623 2.44531 12.6448 2.44531 9.86976 2.60937C7.18476 2.74219 4.79977 3.38281 2.82727 5.42969C0.854766 7.47656 0.247266 9.96094 0.112266 12.7656C-0.0452344 15.6562 -0.0452344 24.3203 0.112266 27.2109C0.239766 30.0156 0.854766 32.5 2.82727 34.5469C4.79977 36.5938 7.17726 37.2344 9.86976 37.375C12.6448 37.5391 20.9623 37.5391 23.7373 37.375C26.4298 37.2422 28.8148 36.6016 30.7798 34.5469C32.7448 32.5 33.3598 30.0156 33.4948 27.2109C33.6523 24.3203 33.6523 15.6641 33.4948 12.7734ZM29.9098 30.3125C29.3248 31.8438 28.1923 33.0234 26.7148 33.6406C24.5023 34.5547 19.2523 34.3438 16.8073 34.3438C14.3623 34.3438 9.10476 34.5469 6.89976 33.6406C5.42976 33.0312 4.29727 31.8516 3.70477 30.3125C2.82727 28.0078 3.02977 22.5391 3.02977 19.9922C3.02977 17.4453 2.83477 11.9688 3.70477 9.67188C4.28977 8.14062 5.42226 6.96094 6.89976 6.34375C9.11226 5.42969 14.3623 5.64062 16.8073 5.64062C19.2523 5.64062 24.5098 5.4375 26.7148 6.34375C28.1848 6.95312 29.3173 8.13281 29.9098 9.67188C30.7873 11.9766 30.5848 17.4453 30.5848 19.9922C30.5848 22.5391 30.7873 28.0156 29.9098 30.3125Z" fill="#575756"/>
</g>
<defs>
<clipPath id="clip0_231_75">
<rect width="33.6" height="40" fill="white"/>
</clipPath>
</defs>
</svg>
