<svg width="21" height="25" viewBox="0 0 21 25" fill="none" xmlns="http://www.w3.org/2000/svg">
<g clip-path="url(#clip0_220_311)">
<path d="M10.5048 6.88477C7.52353 6.88477 5.11885 9.38965 5.11885 12.4951C5.11885 15.6006 7.52353 18.1055 10.5048 18.1055C13.486 18.1055 15.8907 15.6006 15.8907 12.4951C15.8907 9.38965 13.486 6.88477 10.5048 6.88477ZM10.5048 16.1426C8.57822 16.1426 7.00322 14.5068 7.00322 12.4951C7.00322 10.4834 8.57353 8.84766 10.5048 8.84766C12.436 8.84766 14.0063 10.4834 14.0063 12.4951C14.0063 14.5068 12.4313 16.1426 10.5048 16.1426ZM17.3673 6.65527C17.3673 7.38281 16.8048 7.96387 16.111 7.96387C15.4126 7.96387 14.8548 7.37793 14.8548 6.65527C14.8548 5.93262 15.4173 5.34668 16.111 5.34668C16.8048 5.34668 17.3673 5.93262 17.3673 6.65527ZM20.9345 7.9834C20.8548 6.23047 20.4704 4.67773 19.2376 3.39844C18.0095 2.11914 16.5188 1.71875 14.836 1.63086C13.1017 1.52832 7.90322 1.52832 6.16885 1.63086C4.49072 1.71387 3.0001 2.11426 1.76729 3.39355C0.534473 4.67285 0.154785 6.22559 0.0704101 7.97852C-0.0280273 9.78516 -0.0280273 15.2002 0.0704101 17.0068C0.150098 18.7598 0.534473 20.3125 1.76729 21.5918C3.0001 22.8711 4.48603 23.2715 6.16885 23.3594C7.90322 23.4619 13.1017 23.4619 14.836 23.3594C16.5188 23.2764 18.0095 22.876 19.2376 21.5918C20.4657 20.3125 20.8501 18.7598 20.9345 17.0068C21.0329 15.2002 21.0329 9.79004 20.9345 7.9834ZM18.6938 18.9453C18.3282 19.9023 17.6204 20.6396 16.697 21.0254C15.3142 21.5967 12.0329 21.4648 10.5048 21.4648C8.97666 21.4648 5.69072 21.5918 4.3126 21.0254C3.39385 20.6445 2.68604 19.9072 2.31572 18.9453C1.76729 17.5049 1.89385 14.0869 1.89385 12.4951C1.89385 10.9033 1.77197 7.48047 2.31572 6.04492C2.68135 5.08789 3.38916 4.35059 4.3126 3.96484C5.69541 3.39355 8.97666 3.52539 10.5048 3.52539C12.0329 3.52539 15.3188 3.39844 16.697 3.96484C17.6157 4.3457 18.3235 5.08301 18.6938 6.04492C19.2423 7.48535 19.1157 10.9033 19.1157 12.4951C19.1157 14.0869 19.2423 17.5098 18.6938 18.9453Z" fill="white"/>
</g>
<defs>
<clipPath id="clip0_220_311">
<rect width="21" height="25" fill="white"/>
</clipPath>
</defs>
</svg>
