<svg width="22" height="21" viewBox="0 0 22 21" fill="none" xmlns="http://www.w3.org/2000/svg">
<g clip-path="url(#clip0_220_315)">
<path d="M0 1.50412C0 0.673313 0.72325 0 1.61562 0H20.3844C21.2768 0 22 0.673313 22 1.50412V19.4959C22 20.3267 21.2768 21 20.3844 21H1.61562C0.72325 21 0 20.3267 0 19.4959V1.50412ZM6.79662 17.5796V8.09681H3.49525V17.5796H6.79662ZM5.14663 6.80138C6.2975 6.80138 7.01388 6.07425 7.01388 5.16337C6.99325 4.23281 6.29888 3.52538 5.16862 3.52538C4.03837 3.52538 3.3 4.23413 3.3 5.16337C3.3 6.07425 4.01638 6.80138 5.12463 6.80138H5.14663ZM11.8951 17.5796V12.2837C11.8951 12.0002 11.9171 11.7167 12.0051 11.5146C12.243 10.9489 12.7861 10.3622 13.6991 10.3622C14.894 10.3622 15.3711 11.2311 15.3711 12.5068V17.5796H18.6725V12.1406C18.6725 9.22688 17.0445 7.87238 14.872 7.87238C13.1202 7.87238 12.3351 8.79113 11.8951 9.43819V9.471H11.8731L11.8951 9.43819V8.09681H8.59513C8.63637 8.98669 8.59513 17.5796 8.59513 17.5796H11.8951Z" fill="white"/>
</g>
<defs>
<clipPath id="clip0_220_315">
<rect width="22" height="21" fill="white"/>
</clipPath>
</defs>
</svg>
