<svg width="36" height="34" viewBox="0 0 36 34" fill="none" xmlns="http://www.w3.org/2000/svg">
<g clip-path="url(#clip0_231_79)">
<path d="M0.399902 2.6068C0.399902 1.2775 1.5571 0.200195 2.9849 0.200195H33.0149C34.4427 0.200195 35.5999 1.2775 35.5999 2.6068V31.3936C35.5999 32.7229 34.4427 33.8002 33.0149 33.8002H2.9849C1.5571 33.8002 0.399902 32.7229 0.399902 31.3936V2.6068ZM11.2745 28.3276V13.1551H5.9923V28.3276H11.2745ZM8.6345 11.0824C10.4759 11.0824 11.6221 9.91899 11.6221 8.46159C11.5891 6.97269 10.4781 5.8408 8.6697 5.8408C6.8613 5.8408 5.6799 6.97479 5.6799 8.46159C5.6799 9.91899 6.8261 11.0824 8.5993 11.0824H8.6345ZM19.4321 28.3276V19.8541C19.4321 19.4005 19.4673 18.9469 19.6081 18.6235C19.9887 17.7184 20.8577 16.7797 22.3185 16.7797C24.2303 16.7797 24.9937 18.1699 24.9937 20.2111V28.3276H30.2759V19.6252C30.2759 14.9632 27.6711 12.796 24.1951 12.796C21.3923 12.796 20.1361 14.266 19.4321 15.3013V15.3538H19.3969L19.4321 15.3013V13.1551H14.1521C14.2181 14.5789 14.1521 28.3276 14.1521 28.3276H19.4321Z" fill="#575756"/>
</g>
<defs>
<clipPath id="clip0_231_79">
<rect width="35.2" height="33.6" fill="white" transform="translate(0.399902 0.200195)"/>
</clipPath>
</defs>
</svg>
