<svg width="40" height="40" viewBox="0 0 40 40" fill="none" xmlns="http://www.w3.org/2000/svg">
<path d="M13.345 3.975C10.9639 4.6308 8.599 5.34434 6.25251 6.115C6.03809 6.18415 5.84746 6.31227 5.70244 6.4847C5.55743 6.65712 5.46388 6.86689 5.43251 7.09C4.04751 17.4825 7.24751 25.065 11.065 30.06C12.6806 32.1966 14.6079 34.0784 16.7825 35.6425C17.6475 36.2525 18.4125 36.6925 19.015 36.975C19.315 37.1167 19.5592 37.215 19.7475 37.27C19.8305 37.2952 19.9148 37.3161 20 37.3325C20.0844 37.316 20.1678 37.2951 20.25 37.27C20.44 37.2133 20.685 37.115 20.985 36.975C21.585 36.6925 22.3525 36.25 23.2175 35.6425C25.3921 34.0784 27.3194 32.1966 28.935 30.06C32.7525 25.0675 35.9525 17.4825 34.5675 7.09C34.5361 6.86689 34.4426 6.65712 34.2976 6.4847C34.1526 6.31227 33.9619 6.18415 33.7475 6.115C32.12 5.5825 29.3725 4.715 26.655 3.9775C23.88 3.225 21.3275 2.6675 20 2.6675C18.675 2.6675 16.12 3.2225 13.345 3.975ZM12.68 1.4C15.3925 0.6625 18.275 0 20 0C21.725 0 24.6075 0.6625 27.32 1.4C30.095 2.15 32.8925 3.0375 34.5375 3.575C35.2253 3.80213 35.835 4.21866 36.2967 4.77675C36.7584 5.33484 37.0533 6.01185 37.1475 6.73C38.6375 17.9225 35.18 26.2175 30.985 31.705C29.2054 34.0518 27.0844 36.1189 24.6925 37.8375C23.8663 38.4336 22.9897 38.9564 22.0725 39.4C21.3725 39.73 20.62 40 20 40C19.38 40 18.63 39.73 17.9275 39.4C17.0104 38.9564 16.1337 38.4336 15.3075 37.8375C12.9156 36.1189 10.7946 34.0518 9.01501 31.705C4.82001 26.2175 1.36251 17.9225 2.85251 6.73C2.94673 6.01185 3.24162 5.33484 3.70331 4.77675C4.16499 4.21866 4.77474 3.80213 5.46251 3.575C7.85065 2.79252 10.2572 2.06732 12.68 1.4Z" fill="white"/>
<path d="M27.1351 12.8648C27.2515 12.9809 27.3439 13.1188 27.4069 13.2707C27.4699 13.4226 27.5023 13.5854 27.5023 13.7498C27.5023 13.9142 27.4699 14.077 27.4069 14.2289C27.3439 14.3807 27.2515 14.5187 27.1351 14.6348L19.6351 22.1348C19.519 22.2512 19.3811 22.3436 19.2292 22.4066C19.0773 22.4696 18.9145 22.502 18.7501 22.502C18.5857 22.502 18.4229 22.4696 18.271 22.4066C18.1192 22.3436 17.9812 22.2512 17.8651 22.1348L14.1151 18.3848C13.9989 18.2686 13.9067 18.1306 13.8438 17.9788C13.7809 17.8269 13.7485 17.6642 13.7485 17.4998C13.7485 17.3354 13.7809 17.1727 13.8438 17.0208C13.9067 16.869 13.9989 16.731 14.1151 16.6148C14.2313 16.4986 14.3693 16.4064 14.5212 16.3435C14.673 16.2806 14.8358 16.2482 15.0001 16.2482C15.1645 16.2482 15.3272 16.2806 15.4791 16.3435C15.6309 16.4064 15.7689 16.4986 15.8851 16.6148L18.7501 19.4823L25.3651 12.8648C25.4812 12.7484 25.6192 12.656 25.771 12.593C25.9229 12.53 26.0857 12.4976 26.2501 12.4976C26.4145 12.4976 26.5773 12.53 26.7292 12.593C26.8811 12.656 27.019 12.7484 27.1351 12.8648Z" fill="white"/>
</svg>
