<svg width="21" height="25" viewBox="0 0 21 25" fill="none" xmlns="http://www.w3.org/2000/svg">
<path d="M17.8547 4.74121C15.8906 2.69043 13.275 1.5625 10.4953 1.5625C4.75781 1.5625 0.0890625 6.42578 0.0890625 12.4023C0.0890625 14.3115 0.567188 16.1768 1.47656 17.8223L0 23.4375L5.51719 21.9287C7.03594 22.793 8.74687 23.2471 10.4906 23.2471H10.4953C16.2281 23.2471 21 18.3838 21 12.4072C21 9.51172 19.8188 6.79199 17.8547 4.74121ZM10.4953 21.4209C8.93906 21.4209 7.41562 20.9863 6.08906 20.166L5.775 19.9707L2.50313 20.8643L3.375 17.5391L3.16875 17.1973C2.30156 15.7617 1.84688 14.1064 1.84688 12.4023C1.84688 7.43652 5.72812 3.39355 10.5 3.39355C12.8109 3.39355 14.9812 4.33105 16.6125 6.03516C18.2437 7.73926 19.2469 10 19.2422 12.4072C19.2422 17.3779 15.2625 21.4209 10.4953 21.4209ZM15.2391 14.6729C14.9813 14.5361 13.7016 13.8818 13.4625 13.7939C13.2234 13.7012 13.05 13.6572 12.8766 13.9307C12.7031 14.2041 12.2063 14.8096 12.0516 14.9951C11.9016 15.1758 11.7469 15.2002 11.4891 15.0635C9.96094 14.2676 8.95781 13.6426 7.95 11.8408C7.68281 11.3623 8.21719 11.3965 8.71406 10.3613C8.79844 10.1807 8.75625 10.0244 8.69062 9.8877C8.625 9.75098 8.10469 8.41797 7.88906 7.87598C7.67813 7.34863 7.4625 7.42188 7.30313 7.41211C7.15313 7.40234 6.97969 7.40234 6.80625 7.40234C6.63281 7.40234 6.35156 7.4707 6.1125 7.73926C5.87344 8.0127 5.20312 8.66699 5.20312 10C5.20312 11.333 6.13594 12.6221 6.2625 12.8027C6.39375 12.9834 8.09531 15.7178 10.7062 16.8945C12.3562 17.6367 13.0031 17.7002 13.8281 17.5732C14.3297 17.4951 15.3656 16.9189 15.5812 16.2842C15.7969 15.6494 15.7969 15.1074 15.7313 14.9951C15.6703 14.873 15.4969 14.8047 15.2391 14.6729Z" fill="white"/>
</svg>
