<svg width="35" height="40" viewBox="0 0 35 40" fill="none" xmlns="http://www.w3.org/2000/svg">
<g clip-path="url(#clip0_231_77)">
<path d="M29.3673 7.58594C26.2248 4.30469 22.0398 2.5 17.5923 2.5C8.4123 2.5 0.942305 10.2812 0.942305 19.8438C0.942305 22.8984 1.7073 25.8828 3.1623 28.5156L0.799805 37.5L9.6273 35.0859C12.0573 36.4688 14.7948 37.1953 17.5848 37.1953H17.5923C26.7648 37.1953 34.3998 29.4141 34.3998 19.8516C34.3998 15.2188 32.5098 10.8672 29.3673 7.58594ZM17.5923 34.2734C15.1023 34.2734 12.6648 33.5781 10.5423 32.2656L10.0398 31.9531L4.8048 33.3828L6.1998 28.0625L5.8698 27.5156C4.4823 25.2188 3.7548 22.5703 3.7548 19.8438C3.7548 11.8984 9.9648 5.42969 17.5998 5.42969C21.2973 5.42969 24.7698 6.92969 27.3798 9.65625C29.9898 12.3828 31.5948 16 31.5873 19.8516C31.5873 27.8047 25.2198 34.2734 17.5923 34.2734ZM25.1823 23.4766C24.7698 23.2578 22.7223 22.2109 22.3398 22.0703C21.9573 21.9219 21.6798 21.8516 21.4023 22.2891C21.1248 22.7266 20.3298 23.6953 20.0823 23.9922C19.8423 24.2812 19.5948 24.3203 19.1823 24.1016C16.7373 22.8281 15.1323 21.8281 13.5198 18.9453C13.0923 18.1797 13.9473 18.2344 14.7423 16.5781C14.8773 16.2891 14.8098 16.0391 14.7048 15.8203C14.5998 15.6016 13.7673 13.4688 13.4223 12.6016C13.0848 11.7578 12.7398 11.875 12.4848 11.8594C12.2448 11.8438 11.9673 11.8438 11.6898 11.8438C11.4123 11.8438 10.9623 11.9531 10.5798 12.3828C10.1973 12.8203 9.1248 13.8672 9.1248 16C9.1248 18.1328 10.6173 20.1953 10.8198 20.4844C11.0298 20.7734 13.7523 25.1484 17.9298 27.0312C20.5698 28.2188 21.6048 28.3203 22.9248 28.1172C23.7273 27.9922 25.3848 27.0703 25.7298 26.0547C26.0748 25.0391 26.0748 24.1719 25.9698 23.9922C25.8723 23.7969 25.5948 23.6875 25.1823 23.4766Z" fill="#575756"/>
</g>
<defs>
<clipPath id="clip0_231_77">
<rect width="33.6" height="40" fill="white" transform="translate(0.799805)"/>
</clipPath>
</defs>
</svg>
