<svg id="Capa_1" data-name="Capa 1" xmlns="http://www.w3.org/2000/svg" viewBox="0 0 90 90"><defs><style>.cls-1{fill:#bd1c1e;}</style></defs><path class="cls-1" d="M10.45,60.13h8.18v0c2.37,0,4.74-.06,7.11,0a10.87,10.87,0,0,0,6.88-2.34A32,32,0,0,0,37,53.54c2.24-2.4,4.44-4.83,6.67-7.23s4.6-5,6.93-7.39A18.21,18.21,0,0,1,56,34.8a13.57,13.57,0,0,1,5.16-1.38c2.66-.1,5.33-.08,8-.09,3.61,0,7.21,0,10.82,0a.71.71,0,0,1,.81.56c.32,1.09.64,2.19.94,3.29.11.4-.05.59-.47.59h-4c-2.87,0-5.74,0-8.6,0a16.21,16.21,0,0,0-5.27.71,12.12,12.12,0,0,0-5.23,3.74C56.06,44.62,54,47.06,52,49.51s-3.92,4.82-5.9,7.21c-1.63,2-3.28,3.94-5,5.86a15.71,15.71,0,0,1-5.5,4.33,9.78,9.78,0,0,1-3.91.81c-3.19,0-6.39,0-9.58,0a2.35,2.35,0,0,0-.61.18"/><path class="cls-1" d="M65.62,29.66H56.21a24.55,24.55,0,0,0-7.38.92,19.14,19.14,0,0,0-5.66,3.09,59.7,59.7,0,0,0-6.39,5.6Q29.88,46.08,23,52.89a16.5,16.5,0,0,1-5,3.59,9.77,9.77,0,0,1-3.89.72c-1.76,0-3.52,0-5.28.06-.46,0-.7-.16-.76-.59-.14-1.11-.3-2.21-.39-3.32a.85.85,0,0,1,.35-.62c2.78-1.91,5.27-4.2,7.85-6.37q3.39-2.86,6.75-5.78c2-1.71,3.9-3.47,5.89-5.15A50.92,50.92,0,0,1,39,28.07a30.62,30.62,0,0,1,8.55-2.69A48.73,48.73,0,0,1,57.88,25c1.86.1,3.71.14,5.57.28,3.51.29,7,.19,10.55.14a3.47,3.47,0,0,1,2.61,1.13,22.41,22.41,0,0,1,1.87,2.35c.34.47.17.72-.42.72Z"/><path class="cls-1" d="M70.78,24H67.42a1.41,1.41,0,0,1-1-.49A30.9,30.9,0,0,0,58,17.33,29.5,29.5,0,0,0,49,14.51a33.24,33.24,0,0,0-7.59-.26,30.2,30.2,0,0,0-17.15,7A31.37,31.37,0,0,0,14,36.84a30.91,30.91,0,0,0-1.26,6.6c-.08,1.22-.16,2.43-.17,3.65a1.69,1.69,0,0,1-.7,1.45L7.72,51.68C7.25,52,7,52,7,51.39c-.1-1-.16-2.12-.18-3.18A38.25,38.25,0,0,1,13.05,26,37.4,37.4,0,0,1,35.86,10.18a38.58,38.58,0,0,1,10.5-.9,37.87,37.87,0,0,1,17.15,5A37.14,37.14,0,0,1,74,23.17a2,2,0,0,1,.26.62,2.28,2.28,0,0,1-.68.23c-.92,0-1.84,0-2.77,0Z"/><path class="cls-1" d="M47.2,78.76s0-.29.14-.38a51,51,0,0,0,5.88-7.32c3.75-5.6,7.43-11.26,11.13-16.9a58,58,0,0,1,4.1-6,7.31,7.31,0,0,1,5.7-2.73c2.56,0,5.11,0,7.67,0,.39,0,.58-.09.55-.52-.05-1-.07-2.09-.11-3.14,0-.32-.17-.46-.52-.45-2.74,0-5.48,0-8.22,0a40.61,40.61,0,0,0-4.41.26,8.07,8.07,0,0,0-4.62,2.2A31.64,31.64,0,0,0,60.35,49c-5.05,7.18-10.08,14.37-15.47,21.3a23.53,23.53,0,0,1-4.23,4.46,9.57,9.57,0,0,1-2.52,1.41"/><path class="cls-1" d="M38.13,76.16a7.56,7.56,0,0,1-4,.35,15.9,15.9,0,0,1-6-2.32,29.88,29.88,0,0,1-6.46-5.62,2,2,0,0,1-.26-.62l-11-7.79c-.68,0-.76.13-.47.75s.68,1.43,1,2.13A37.16,37.16,0,0,0,30,81a37.15,37.15,0,0,0,12.91,3,35.22,35.22,0,0,0,7.87-.47A37.43,37.43,0,0,0,75.88,67.07,39.87,39.87,0,0,0,81.5,54.18a31.16,31.16,0,0,0,.85-5.61c0-.49-.25-.55-.91-.45a11.54,11.54,0,0,1-3.32,0c-.55-.08-.77,0-.83.45-.1.8-.18,1.61-.32,2.4a36.66,36.66,0,0,1-3.76,11,31.49,31.49,0,0,1-6.64,8.54,37.1,37.1,0,0,1-6,4.49,32.56,32.56,0,0,1-10.19,3.74,22,22,0,0,1-2.7.27.68.68,0,0,1-.46-.23"/></svg>