<svg width="1336" height="666" viewBox="0 0 1336 666" fill="none" xmlns="http://www.w3.org/2000/svg">
<g opacity="0.1">
<mask id="mask0_220_180" style="mask-type:alpha" maskUnits="userSpaceOnUse" x="0" y="0" width="1336" height="666">
<path d="M0 70C0 31.3401 31.3401 0 70 0H1336V666H70C31.3401 666 0 634.66 0 596V70Z" fill="#D9D9D9"/>
</mask>
<g mask="url(#mask0_220_180)">
<g filter="url(#filter0_d_220_180)">
<path d="M-17.7183 928.959H144.17C190.987 928.959 237.805 928.959 284.623 928.959C333.907 929.698 381.916 911.669 420.563 877.907C452.276 849.848 481.547 818.583 507.994 784.52C552.556 732.223 595.989 678.681 639.986 626.384C683.984 574.087 730.802 516.81 779.311 465.758C808.818 428.803 844.423 398.379 884.228 376.106C916.044 358.524 950.796 348.352 986.325 346.223C1038.78 346.223 1091.81 346.223 1144.26 346.223H1358.05C1361.63 345.478 1365.34 346.293 1368.39 348.499C1371.44 350.704 1373.59 354.128 1374.4 358.051L1393.02 429.648C1393.02 438.987 1393.02 442.722 1383.43 442.722C1357.48 442.722 1331.54 442.722 1305.02 442.722H1135.8C1100.45 441.848 1065.21 447.315 1031.45 458.91C991.013 475.024 955.324 503.007 928.226 539.845C887.049 592.765 846.436 645.684 805.823 699.226L689.624 856.739C656.908 899.697 624.756 942.655 590.912 984.99C560.465 1024.35 522.522 1055.82 479.791 1077.13C455.162 1088.71 428.716 1094.84 401.949 1095.19H215.242C210.898 1095.78 206.691 1097.26 202.833 1099.55" fill="url(#paint0_radial_220_180)"/>
<path d="M1073.19 264.045H887.051C837.896 262.249 788.789 268.971 741.521 283.968C700.739 299.17 662.592 321.906 628.707 351.206C583.941 389.315 541.715 430.928 502.356 475.722L229.91 772.693C201.837 805.272 168.565 831.865 131.762 851.139C107.388 861.922 81.3048 867.214 55.049 866.703H-49.3037C-58.3288 866.703 -63.4055 862.968 -64.5336 853.629C-67.354 829.349 -70.1743 805.69 -72.4306 781.41C-72.4679 778.533 -71.9887 775.676 -71.0205 773.005C-70.0524 770.333 -68.6145 767.9 -66.7899 765.845C-10.383 724.132 37.5629 674.325 88.8932 627.009L222.014 502.493C260.934 465.138 299.291 427.161 338.776 390.429C401.235 327.284 470.814 273.297 545.789 229.803C599.32 201.323 656.326 181.608 715.01 171.28C782.634 160.704 851.093 158.2 919.203 163.809C955.867 163.809 992.532 166.922 1029.2 170.035C1098.58 176.261 1167.96 173.771 1237.34 170.035C1247.06 169.729 1256.73 171.74 1265.68 175.93C1274.64 180.12 1282.67 186.391 1289.23 194.316C1302.54 210.344 1314.8 227.405 1325.9 245.367C1332.67 255.951 1329.28 261.555 1318 261.555L1073.19 264.045Z" fill="#575756"/>
<path d="M1174.16 143.26H1108.73C1104.86 143.163 1101.06 142.17 1097.56 140.347C1094.06 138.524 1090.95 135.911 1088.42 132.676C1039.57 76.9573 982.308 31.0332 919.203 -3.0464C863.982 -34.1813 804.545 -55.2078 743.214 -65.3045C693.576 -73.7068 643.211 -75.5879 593.171 -70.908C468.708 -60.7345 350.301 -7.5874 254.73 81.0019C156.871 168.958 85.6392 287.758 50.537 421.554C37.776 468.627 29.4588 517.031 25.7179 565.993C25.7179 592.141 22.3335 618.912 22.3335 645.683C22.5495 651.763 21.37 657.804 18.9047 663.246C16.4393 668.688 12.7681 673.355 8.23177 676.812L-72.9942 745.918C-82.5833 753.389 -86.5318 752.144 -87.66 739.07C-87.66 716.034 -91.0444 692.999 -91.6084 669.964C-96.617 498.318 -53.474 329.153 31.9227 185.596C70.0239 122.011 115.967 64.5961 168.427 15.0085C258.694 -71.0194 366.811 -131.114 483.178 -159.937C551.248 -176.823 621.067 -183.524 690.755 -179.86C795.987 -174.645 899.031 -144.937 993.13 -92.6849C1087.23 -40.4327 1170.26 33.184 1236.77 123.337C1238.8 127.742 1240.5 132.323 1241.85 137.034C1238.39 139.72 1234.59 141.819 1230.57 143.26H1174.16Z" fill="url(#paint1_radial_220_180)"/>
<path d="M708.807 1335.5C708.802 1332.32 709.799 1329.24 711.627 1326.79C754.836 1277.83 793.743 1224.47 827.825 1167.41C902.283 1042.89 975.047 918.373 1047.81 798.215C1072.54 753.115 1099.67 709.666 1129.04 668.096C1142.38 649.009 1159.45 633.496 1178.99 622.715C1198.52 611.934 1220.01 606.165 1241.85 605.838C1292.05 605.838 1342.82 605.838 1393.59 605.838C1400.92 605.838 1404.87 605.838 1404.3 594.631C1404.3 572.218 1404.3 549.183 1404.3 526.147C1404.3 519.299 1400.92 516.186 1394.15 516.186H1230.57C1201.24 516.186 1174.16 516.186 1143.14 521.789C1108.81 526.54 1076.78 543.346 1051.76 569.728C1021.27 604.287 993.874 642.026 969.971 682.415C870.131 839.306 770.854 993.705 664.245 1147.48C640.452 1183.81 612.378 1216.47 580.763 1244.61C565.636 1257.36 548.917 1267.64 531.125 1275.11" fill="url(#paint2_linear_220_180)"/>
<path d="M530 1278.23C504.567 1288.46 477.167 1291.24 450.467 1286.32C408.646 1278.18 368.742 1260.82 333.14 1235.27C285.193 1200.87 242.057 1158.92 205.097 1110.75C202.739 1106.75 201.021 1102.33 200.02 1097.68L-18.2748 927.714C-31.8125 927.714 -32.9406 927.714 -27.2999 943.901L-6.99338 990.595C36.5886 1086.26 96.1005 1172.01 168.432 1243.36C228.461 1300.66 296.209 1347.29 369.241 1381.58C449.695 1421.59 536.105 1445.01 624.2 1450.68C676.269 1453.92 728.502 1450.58 779.883 1440.72C840.935 1429.27 900.44 1409.4 957.001 1381.58C1086.87 1316.67 1197.52 1212.66 1276.26 1081.49C1328.58 995.746 1366.77 900.483 1389.08 800.085C1398.19 759.246 1403.86 717.562 1406 675.569C1406 664.362 1401.49 663.117 1387.95 665.607C1366.25 669.03 1344.22 669.03 1322.52 665.607C1311.8 665.607 1307.29 665.607 1306.16 675.569C1305.03 685.53 1302.78 710.433 1299.95 727.865C1286.59 811.554 1261.47 892.426 1225.5 967.559C1191.68 1037.65 1147.23 1100.82 1094.07 1154.33C1057.49 1191.27 1017.62 1224.02 975.051 1252.08C912.555 1291.56 844.478 1319.13 773.678 1333.64C756.192 1337.37 738.142 1337.99 720.656 1339.86C717.022 1339.52 713.62 1337.76 711.067 1334.88" fill="url(#paint3_linear_220_180)"/>
</g>
</g>
</g>
<defs>
<filter id="filter0_d_220_180" x="-92.28" y="-181.112" width="1499.88" height="1634.59" filterUnits="userSpaceOnUse" color-interpolation-filters="sRGB">
<feFlood flood-opacity="0" result="BackgroundImageFix"/>
<feColorMatrix in="SourceAlpha" type="matrix" values="0 0 0 0 0 0 0 0 0 0 0 0 0 0 0 0 0 0 127 0" result="hardAlpha"/>
<feOffset dx="0.66" dy="0.66"/>
<feGaussianBlur stdDeviation="0.47"/>
<feColorMatrix type="matrix" values="0 0 0 0 0 0 0 0 0 0 0 0 0 0 0 0 0 0 0.25 0"/>
<feBlend mode="normal" in2="BackgroundImageFix" result="effect1_dropShadow_220_180"/>
<feBlend mode="normal" in="SourceGraphic" in2="effect1_dropShadow_220_180" result="shape"/>
</filter>
<radialGradient id="paint0_radial_220_180" cx="0" cy="0" r="1" gradientUnits="userSpaceOnUse" gradientTransform="translate(297.596 1110.13) scale(1031.12 1138.08)">
<stop offset="0.4" stop-color="#706F6F"/>
<stop offset="0.91" stop-color="#DADADA"/>
</radialGradient>
<radialGradient id="paint1_radial_220_180" cx="0" cy="0" r="1" gradientUnits="userSpaceOnUse" gradientTransform="translate(34.7431 639.457) scale(1031.12 1138.08)">
<stop offset="0.2" stop-color="#706F6F"/>
<stop offset="0.55" stop-color="#727171"/>
<stop offset="0.68" stop-color="#797878"/>
<stop offset="0.77" stop-color="#848484"/>
<stop offset="0.85" stop-color="#959595"/>
<stop offset="0.91" stop-color="#ABABAB"/>
<stop offset="0.97" stop-color="#C5C5C5"/>
<stop offset="1" stop-color="#DADADA"/>
</radialGradient>
<linearGradient id="paint2_linear_220_180" x1="732.498" y1="1336.75" x2="1279.5" y2="578.158" gradientUnits="userSpaceOnUse">
<stop stop-color="#706F6F"/>
<stop offset="0.05" stop-color="#706F6F"/>
<stop offset="0.11" stop-color="#706F6F"/>
<stop offset="0.19" stop-color="#706F6F"/>
<stop offset="0.28" stop-color="#706F6F"/>
<stop offset="0.41" stop-color="#706F6F"/>
<stop offset="0.76" stop-color="#706F6F"/>
</linearGradient>
<linearGradient id="paint3_linear_220_180" x1="-30.6843" y1="1058.46" x2="1403.74" y2="1058.46" gradientUnits="userSpaceOnUse">
<stop stop-color="#706F6F"/>
<stop offset="0.44" stop-color="#727171"/>
<stop offset="0.6" stop-color="#797878"/>
<stop offset="0.72" stop-color="#848383"/>
<stop offset="0.81" stop-color="#959494"/>
<stop offset="0.89" stop-color="#ABAAAA"/>
<stop offset="0.96" stop-color="#C5C5C5"/>
<stop offset="1" stop-color="#DADADA"/>
</linearGradient>
</defs>
</svg>
