<?xml version="1.0" encoding="utf-8"?>
<!-- Generator: Adobe Illustrator 24.0.2, SVG Export Plug-In . SVG Version: 6.00 Build 0)  -->
<svg version="1.1" id="Capa_1" xmlns="http://www.w3.org/2000/svg" xmlns:xlink="http://www.w3.org/1999/xlink" x="0px" y="0px"
	 viewBox="0 0 358.4 63.4" style="enable-background:new 0 0 358.4 63.4;" xml:space="preserve">
<style type="text/css">
	.st0{fill:#FFFFFF;}
	.st1{fill:url(#SVGID_1_);}
	.st2{fill:#063F85;}
	.st3{fill:url(#SVGID_2_);}
	.st4{fill:url(#SVGID_3_);}
	.st5{fill:url(#SVGID_4_);}
</style>
<path class="st0" d="M68.6,13.9h21.5v5h-8.3v26h-4.9v-26h-8.2V13.9z"/>
<path class="st0" d="M102.7,28.7H101c-0.7-0.1-1.5,0-2.2,0.3c-0.7,0.3-1.3,0.7-1.9,1.3c-0.5,0.6-0.9,1.3-1.2,2.1
	c-0.2,0.8-0.3,1.6-0.2,2.4V45h-4.7V24h4.3l0.3,3.1c0.4-1.1,1.2-2,2.1-2.6c0.9-0.6,2-0.9,3.1-0.9c0.7,0,1.4,0.1,2.1,0.3L102.7,28.7z"
	/>
<path class="st0" d="M104.3,39c0-3.9,2.5-6.3,7-6.7l5.7-0.5v-0.4c0-2.8-1.5-4-3.9-4c-2.8,0-4.3,1.3-4.3,3.5h-3.9
	c0-4.5,3.4-7.5,8.6-7.5c5.2,0,8.3,3,8.3,8.9V45h-4.2l-0.4-3.1c-0.6,1.2-1.6,2.2-2.7,2.9c-1.1,0.6-2.4,0.9-3.7,0.8
	C106.8,45.5,104.3,42.9,104.3,39z M117.1,36.5v-1.1l-3.9,0.3c-2.9,0.3-4,1.4-4,3.1c0,1.7,1.2,2.8,3.3,2.8c0.6,0.1,1.3,0,1.8-0.3
	c0.6-0.2,1.1-0.6,1.6-1.1c0.4-0.5,0.8-1.1,1-1.7C117.1,37.9,117.1,37.2,117.1,36.5z"/>
<path class="st0" d="M126.3,45V24h4.4l0.4,2.7c0.7-1.1,1.6-2,2.6-2.5c1.1-0.6,2.2-0.9,3.4-0.8c4.8,0,7.2,3.3,7.2,8.6v12.9h-4.7V33.3
	c0-3.5-1.6-5.2-3.9-5.2c-0.7,0-1.3,0.1-1.9,0.4c-0.6,0.3-1.1,0.7-1.6,1.2c-0.4,0.5-0.8,1.2-1,1.9c-0.2,0.7-0.3,1.4-0.2,2.1V45H126.3
	z"/>
<path class="st0" d="M151.7,38.6c0,1.8,1.3,3,3.4,3s3.4-1,3.4-2.5c0-1.1-0.5-1.8-2.2-2.2l-3.4-0.9c-3.4-0.8-5.1-2.6-5.1-6
	c0-4.1,3.2-6.5,7.5-6.5s7.2,2.7,7.2,6.8h-4.5c0-0.4-0.1-0.8-0.2-1.2c-0.1-0.4-0.4-0.7-0.6-1s-0.6-0.5-1-0.6
	c-0.4-0.1-0.7-0.2-1.1-0.1c-1.8,0-2.9,0.9-2.9,2.5c0,1.2,0.8,2,2.5,2.4l3.4,0.9c3.2,0.8,4.8,2.4,4.8,5.6c0,4.3-3.3,6.9-8,6.9
	c-4.7,0-7.8-2.8-7.8-6.9L151.7,38.6z"/>
<path class="st0" d="M174.9,23.4c5.2,0,8.7,3.2,9.2,8.2h-4.7c-0.2-1.1-0.8-2-1.6-2.7c-0.8-0.7-1.8-1-2.8-0.9c-3,0-5,2.5-5,6.5
	c0,3.9,2,6.5,4.9,6.5c1,0.1,2-0.2,2.9-0.9c0.8-0.7,1.4-1.6,1.6-2.7h4.7c-0.3,2.4-1.4,4.6-3.2,6.1c-1.7,1.5-3.9,2.3-6.1,2.1
	c-5.9,0-9.6-4.4-9.6-11.1c-0.1-1.4,0.1-2.9,0.5-4.2c0.4-1.4,1.1-2.6,2-3.6c0.9-1,2-1.9,3.2-2.4C172.3,23.6,173.6,23.3,174.9,23.4z"
	/>
<path class="st0" d="M196.7,23.4c2,0,3.9,0.7,5.5,1.9c1.6,1.2,2.9,3,3.6,5c0.7,2,0.9,4.2,0.5,6.4c-0.4,2.1-1.4,4.1-2.8,5.6
	c-1.4,1.5-3.2,2.6-5.1,3c-1.9,0.4-3.9,0.2-5.8-0.7s-3.4-2.3-4.5-4.1c-1.1-1.8-1.7-3.9-1.7-6.1c0-1.5,0.2-2.9,0.7-4.3
	c0.5-1.4,1.2-2.6,2.2-3.6c1-1,2.1-1.8,3.3-2.4C194.1,23.6,195.4,23.3,196.7,23.4z M196.7,40.9c1.2,0.1,2.3-0.2,3.4-0.9
	c1-0.7,1.8-1.6,2.3-2.8c0.5-1.2,0.7-2.5,0.5-3.8c-0.2-1.3-0.7-2.5-1.5-3.4c-0.8-0.9-1.8-1.6-3-1.9c-1.1-0.3-2.3-0.2-3.4,0.3
	c-1.1,0.5-2,1.3-2.7,2.4c-0.7,1.1-1,2.3-1,3.6c-0.1,0.8,0,1.7,0.3,2.5c0.2,0.8,0.6,1.5,1.2,2.1c0.5,0.6,1.1,1.1,1.8,1.4
	C195.2,40.7,196,40.9,196.7,40.9z"/>
<path class="st0" d="M222.6,28.7h-1.7c-0.7-0.1-1.5,0-2.2,0.3c-0.7,0.3-1.3,0.7-1.9,1.3c-0.5,0.6-0.9,1.3-1.2,2.1
	c-0.2,0.8-0.3,1.6-0.2,2.4V45h-4.7V24h4.4l0.3,3.1c0.4-1.1,1.2-2,2.1-2.6c0.9-0.6,2-0.9,3.1-0.9c0.7,0,1.4,0.1,2.1,0.3V28.7z"/>
<path class="st0" d="M225.8,24h4.4l0.3,3.2c0.7-1.2,1.6-2.2,2.8-2.9c1.2-0.7,2.5-1,3.8-0.9c5.4,0,8.9,4.3,8.9,10.8
	c0,6.5-3.2,11.3-8.9,11.3c-1.3,0.1-2.5-0.2-3.6-0.8c-1.1-0.6-2.1-1.5-2.9-2.6v12.5h-4.7V24z M235.8,40.9c1.4-0.2,2.7-1,3.6-2.2
	c0.9-1.2,1.4-2.7,1.4-4.2c0-1.6-0.5-3.1-1.4-4.2c-0.9-1.2-2.2-1.9-3.6-2.2c-1.4,0.2-2.7,1-3.6,2.2c-0.9,1.2-1.4,2.7-1.4,4.2
	c0,1.6,0.5,3.1,1.4,4.2C233.1,39.9,234.4,40.6,235.8,40.9z"/>
<path class="st0" d="M248.5,42.1c0-0.7,0.2-1.4,0.5-1.9c0.3-0.6,0.8-1,1.4-1.3c0.6-0.3,1.2-0.4,1.8-0.2c0.6,0.1,1.2,0.4,1.6,0.9
	c0.4,0.5,0.8,1.1,0.9,1.8c0.1,0.7,0.1,1.4-0.2,2c-0.2,0.6-0.6,1.2-1.1,1.6c-0.5,0.4-1.1,0.6-1.7,0.6c-0.8,0-1.6-0.4-2.2-1
	C248.8,43.9,248.5,43,248.5,42.1z"/>
<path class="st0" d="M260.7,45V14.8h7.7c3.6,0,7.1,1.6,9.7,4.4c2.6,2.8,4,6.7,4,10.7c0,4-1.4,7.8-4,10.7s-6,4.4-9.7,4.4H260.7z
	 M262.5,16.7v26.4h5.9c1.6,0.1,3.2-0.1,4.7-0.8c1.5-0.6,2.9-1.6,4-2.8c1.1-1.3,2-2.8,2.6-4.4c0.6-1.7,0.8-3.4,0.7-5.2
	c0-8.1-4.6-13.2-11.9-13.2H262.5z"/>
<path class="st0" d="M286.1,16.6c0-0.5,0.2-0.9,0.5-1.3s0.7-0.5,1.1-0.6c0.4,0,0.8,0.2,1.1,0.6c0.3,0.3,0.5,0.8,0.5,1.3
	c0,0.5-0.2,0.9-0.5,1.2c-0.3,0.3-0.7,0.5-1.1,0.5c-0.4,0-0.8-0.2-1.1-0.5C286.3,17.5,286.1,17.1,286.1,16.6z M286.8,24.6h1.8V45
	h-1.8V24.6z"/>
<path class="st0" d="M301.7,24.1c1.6-0.1,3.1,0.4,4.4,1.3c1.3,1,2.3,2.3,2.8,3.9l0.2-4.8h1.4v20c0.1,1.3-0.1,2.5-0.5,3.7
	c-0.4,1.2-1,2.3-1.8,3.2c-0.8,0.9-1.8,1.6-2.9,2.1c-1.1,0.5-2.2,0.6-3.4,0.6c-2,0.2-4-0.5-5.5-1.9c-1.6-1.4-2.6-3.4-2.9-5.5h1.7
	c0.3,1.7,1.2,3.2,2.4,4.2c1.2,1,2.8,1.5,4.3,1.4c0.9,0,1.8-0.1,2.7-0.5c0.9-0.4,1.6-0.9,2.3-1.7c0.6-0.7,1.1-1.6,1.5-2.6
	c0.3-1,0.4-2,0.4-3V39c-0.6,1.6-1.6,2.9-2.9,3.9c-1.3,0.9-2.8,1.4-4.4,1.3c-5.3,0-8.4-4.7-8.4-10.1c-0.1-1.3,0.1-2.6,0.5-3.8
	c0.4-1.2,1-2.3,1.8-3.3c0.8-0.9,1.8-1.7,2.9-2.2C299.3,24.3,300.5,24.1,301.7,24.1z M301.7,42.4c4.4,0,6.9-3.5,6.9-8.3
	c0-4.8-2.4-8.2-6.9-8.2s-6.8,3.8-6.8,8.3C294.9,38.6,297.3,42.4,301.7,42.4L301.7,42.4z"/>
<path class="st0" d="M315.7,16.6c0-0.5,0.2-0.9,0.5-1.3c0.3-0.3,0.7-0.5,1.1-0.6c0.4,0,0.8,0.2,1.1,0.6c0.3,0.3,0.5,0.8,0.5,1.3
	c0,0.5-0.2,0.9-0.5,1.2c-0.3,0.3-0.7,0.5-1.1,0.5c-0.4,0-0.8-0.2-1.1-0.5C315.9,17.5,315.7,17.1,315.7,16.6z M316.4,24.6h1.8V45
	h-1.8V24.6z"/>
<path class="st0" d="M325.6,45V26.3h-3.8v-1.7h3.8v-6.5h1.8v6.5h3.8v1.7h-3.8V45H325.6z"/>
<path class="st0" d="M333.5,39.6c0-3.8,2.6-6.1,6.9-6.5l6.3-0.6v-0.8c0.1-0.8,0-1.6-0.2-2.4c-0.2-0.8-0.6-1.5-1.2-2.1
	c-0.5-0.6-1.2-1-1.9-1.3c-0.7-0.3-1.5-0.3-2.2-0.2c-3.4,0-5.5,1.8-5.5,4.8H334c0-4,2.9-6.5,7.3-6.5c3.9,0,7.1,2.2,7.1,7.4v13.5h-1.3
	l-0.4-3.8c-0.7,1.4-1.7,2.5-3,3.3c-1.2,0.8-2.7,1.1-4.1,1C335.7,45.5,333.5,43.1,333.5,39.6z M346.7,35.3v-1.1l-6.2,0.6
	c-3.7,0.3-5.3,2.3-5.3,4.8s2,4.3,4.7,4.3C344.2,43.8,346.7,40.3,346.7,35.3L346.7,35.3z"/>
<path class="st0" d="M354.2,45V14.3h1.8V45H354.2z"/>
<g>
	
		<radialGradient id="SVGID_1_" cx="83.4351" cy="170.292" r="1" gradientTransform="matrix(42.1643 0 0 -42.7696 -3500.3062 7333.0005)" gradientUnits="userSpaceOnUse">
		<stop  offset="0.4" style="stop-color:#706F6F"/>
		<stop  offset="0.91" style="stop-color:#DADADA"/>
	</radialGradient>
	<path class="st1" d="M4.8,42.8h6.6c1.9,0,3.8,0,5.7,0c2,0,4-0.6,5.6-1.9c1.3-1,2.5-2.2,3.6-3.5c1.8-2,3.6-4,5.4-5.9
		c1.8-2,3.7-4,5.6-6c1.2-1.4,2.6-2.5,4.3-3.4c1.3-0.7,2.8-1.1,4.3-1.1c2.1,0,4.3,0,6.5,0h8.6c0.1,0,0.3,0,0.4,0.1
		c0.1,0.1,0.2,0.2,0.2,0.4c0.3,0.9,0.5,1.8,0.8,2.7c0,0.3,0,0.5-0.4,0.5H51.8c-1.4,0-2.9,0.2-4.3,0.6c-1.7,0.6-3.1,1.7-4.3,3.1
		c-1.7,2-3.4,4-5,6c-1.7,2-3.2,3.9-4.8,5.9c-1.3,1.6-2.7,3.2-4,4.8c-1.2,1.5-2.7,2.7-4.4,3.6c-1,0.4-2.1,0.7-3.2,0.7h-7.8
		c-0.2,0-0.3,0.1-0.5,0.1"/>
	<path class="st2" d="M49.4,17.8h-7.6c-2-0.1-4,0.2-6,0.8c-1.7,0.6-3.2,1.4-4.6,2.5c-1.8,1.4-3.6,2.9-5.2,4.6L14.9,36.9
		c-1.1,1.2-2.5,2.2-4,3c-1,0.4-2.1,0.6-3.1,0.6H3.5c-0.4,0-0.6-0.1-0.6-0.5c0-0.9-0.2-1.8-0.3-2.7c0-0.1,0-0.2,0.1-0.3
		c0-0.1,0.1-0.2,0.2-0.2c2.3-1.6,4.3-3.4,6.4-5.2c2.1-1.8,3.7-3.1,5.5-4.7c1.8-1.6,3.2-2.8,4.8-4.3c2.6-2.4,5.4-4.4,8.5-6
		c2.2-1.1,4.5-1.8,6.9-2.2c2.8-0.4,5.6-0.5,8.3-0.3c1.5,0,3,0.1,4.5,0.2c2.8,0.2,5.7,0.2,8.5,0.1c0.4,0,0.8,0.1,1.2,0.2
		s0.7,0.4,1,0.7c0.5,0.6,1,1.3,1.5,1.9c0.3,0.4,0.1,0.6-0.3,0.6L49.4,17.8z"/>
	
		<radialGradient id="SVGID_2_" cx="83.4351" cy="170.292" r="1" gradientTransform="matrix(42.1643 0 0 -42.7696 -3511.0601 7315.2808)" gradientUnits="userSpaceOnUse">
		<stop  offset="0.2" style="stop-color:#706F6F"/>
		<stop  offset="0.55" style="stop-color:#727171"/>
		<stop  offset="0.68" style="stop-color:#797878"/>
		<stop  offset="0.77" style="stop-color:#848484"/>
		<stop  offset="0.85" style="stop-color:#959595"/>
		<stop  offset="0.91" style="stop-color:#ABABAB"/>
		<stop  offset="0.97" style="stop-color:#C5C5C5"/>
		<stop  offset="1" style="stop-color:#DADADA"/>
	</radialGradient>
	<path class="st3" d="M53.6,13.2c-0.9,0-1.8,0-2.7,0c-0.2,0-0.3,0-0.5-0.1c-0.1-0.1-0.3-0.2-0.4-0.3c-2-2.1-4.3-3.8-6.8-5.1
		c-2.3-1.2-4.7-1.9-7.2-2.3c-2-0.3-4.1-0.4-6.1-0.2c-5.1,0.4-10,2.4-13.9,5.7c-4,3.3-6.9,7.9-8.3,12.9c-0.5,1.8-0.9,3.6-1,5.4
		c0,1-0.1,2-0.1,3c0,0.2,0,0.5-0.1,0.7c-0.1,0.2-0.2,0.4-0.4,0.5c-1.1,0.8-2.1,1.7-3.3,2.6C2.2,36.3,2,36.3,2,35.8
		c0-0.9-0.1-1.7-0.1-2.6C1.6,26.7,3.4,20.4,6.9,15C11.2,8.4,17.8,3.8,25.3,2c7.6-1.7,15.6-0.5,22.4,3.3c3.3,1.9,6.1,4.4,8.5,7.3
		c0.1,0.2,0.2,0.3,0.2,0.5c-0.2,0.1-0.4,0.2-0.6,0.2c-0.7,0-1.5,0-2.3,0L53.6,13.2z"/>
	
		<linearGradient id="SVGID_3_" gradientUnits="userSpaceOnUse" x1="35.3213" y1="87.3053" x2="55.2879" y2="117.4403" gradientTransform="matrix(1 0 0 -1 0 145.4043)">
		<stop  offset="0" style="stop-color:#706F6F"/>
		<stop  offset="5.000000e-02" style="stop-color:#865858"/>
		<stop  offset="0.11" style="stop-color:#9A4243"/>
		<stop  offset="0.19" style="stop-color:#AA3132"/>
		<stop  offset="0.28" style="stop-color:#B52527"/>
		<stop  offset="0.41" style="stop-color:#BB1E20"/>
		<stop  offset="0.76" style="stop-color:#BD1C1E"/>
	</linearGradient>
	<path class="st4" d="M34.5,58.1c0,0,0-0.2,0.1-0.3c1.8-1.8,3.4-3.8,4.8-6c3-4.6,6-9.2,9-13.9c1-1.7,2.1-3.4,3.3-4.9
		c0.6-0.7,1.3-1.2,2.1-1.6c0.8-0.4,1.7-0.6,2.5-0.6c2.1,0,4.3,0,6.2,0c0.3,0,0.5,0,0.4-0.4c0-0.9,0-1.7,0-2.6c0-0.3-0.1-0.4-0.4-0.4
		c-2.1,0-4.4,0-6.7,0c-1.2,0-2.4,0.1-3.5,0.2c-1.4,0.2-2.7,0.8-3.7,1.8c-1.3,1.3-2.4,2.8-3.4,4.3c-4.1,5.9-8.1,11.8-12.5,17.5
		c-1,1.4-2.1,2.6-3.4,3.7c-0.6,0.5-1.4,0.9-2.1,1.2"/>
	
		<linearGradient id="SVGID_4_" gradientUnits="userSpaceOnUse" x1="4.2488" y1="97.6953" x2="62.9473" y2="97.6953" gradientTransform="matrix(1 0 0 -1 0 145.4043)">
		<stop  offset="0" style="stop-color:#706F6F"/>
		<stop  offset="0.44" style="stop-color:#727171"/>
		<stop  offset="0.6" style="stop-color:#797878"/>
		<stop  offset="0.72" style="stop-color:#848383"/>
		<stop  offset="0.81" style="stop-color:#959494"/>
		<stop  offset="0.89" style="stop-color:#ABAAAA"/>
		<stop  offset="0.96" style="stop-color:#C5C5C5"/>
		<stop  offset="1" style="stop-color:#DADADA"/>
	</linearGradient>
	<path class="st5" d="M27.2,56c-1,0.4-2.1,0.5-3.2,0.3c-1.7-0.3-3.4-0.9-4.8-1.9c-1.9-1.3-3.7-2.8-5.2-4.6c-0.1-0.2-0.2-0.3-0.2-0.5
		l-8.9-6.5c-0.6,0-0.6,0.1-0.4,0.6c0.3,0.5,0.5,1.2,0.8,1.8c3.2,6.6,8.6,11.9,15.3,14.8c3.4,1.5,7,2.3,10.6,2.5
		c2.1,0.1,4.3,0,6.4-0.4c2.5-0.4,4.9-1.1,7.2-2.2c5.3-2.4,9.8-6.3,13-11.3c2.1-3.2,3.7-6.8,4.5-10.6c0.4-1.5,0.6-3.1,0.7-4.7
		c0-0.4-0.2-0.5-0.7-0.4c-0.9,0.1-1.8,0.1-2.7,0c-0.4,0-0.6,0-0.7,0.4c0,0.7-0.1,1.3-0.3,2c-0.5,3.2-1.6,6.2-3,9
		c-1.4,2.6-3.2,5-5.4,7c-1.5,1.4-3.1,2.6-4.9,3.7c-2.6,1.5-5.3,2.5-8.2,3.1c-0.7,0.1-1.4,0.2-2.1,0.2c-0.1,0-0.3-0.1-0.4-0.2"/>
</g>
</svg>
